<svg width="354" height="96" viewBox="0 0 354 96" fill="none" xmlns="http://www.w3.org/2000/svg">
<path d="M68.6016 56.625C68.6953 56.6875 68.9453 56.7969 69.3516 56.9531C69.7734 57.1094 70.3281 57.2656 71.0156 57.4219C71.7031 57.5625 72.4609 57.6328 73.2891 57.6328C74.9141 57.6328 76.2891 57.2891 77.4141 56.6016C78.5391 55.9141 79.1016 54.9609 79.1016 53.7422C79.1016 53.0078 78.8516 52.3906 78.3516 51.8906C77.8672 51.3906 77.2422 50.9766 76.4766 50.6484C75.7266 50.3047 74.6328 49.875 73.1953 49.3594C71.0859 48.625 69.3438 47.8984 67.9688 47.1797C66.5938 46.4609 65.3984 45.4219 64.3828 44.0625C63.3828 42.7031 62.8828 40.9375 62.8828 38.7656C62.8828 36.625 63.4062 34.7891 64.4531 33.2578C65.5156 31.7109 66.9688 30.5469 68.8125 29.7656C70.6562 28.9844 72.7422 28.5938 75.0703 28.5938C76.6641 28.5938 78.2422 28.7344 79.8047 29.0156C81.3828 29.2969 82.6797 29.5938 83.6953 29.9062C84.7266 30.2031 85.375 30.4062 85.6406 30.5156L85.3828 39.2344H80.9766L79.7812 35.1562C79.6562 35.125 79.3828 35.0547 78.9609 34.9453C78.5391 34.8359 78.0156 34.7266 77.3906 34.6172C76.7656 34.4922 76.1562 34.4297 75.5625 34.4297C73.9375 34.4297 72.6797 34.75 71.7891 35.3906C70.8984 36.0312 70.4531 36.8516 70.4531 37.8516C70.4531 38.8828 70.9297 39.6953 71.8828 40.2891C72.8516 40.8672 74.375 41.5234 76.4531 42.2578C78.5625 42.9922 80.2969 43.7109 81.6562 44.4141C83.0312 45.1172 84.2031 46.125 85.1719 47.4375C86.1562 48.75 86.6484 50.4297 86.6484 52.4766C86.6484 54.8203 86.0859 56.8359 84.9609 58.5234C83.8359 60.1953 82.2969 61.4688 80.3438 62.3438C78.3906 63.2031 76.1719 63.6328 73.6875 63.6328C72.0938 63.6328 70.5 63.4922 68.9062 63.2109C67.3281 62.9453 66.0156 62.6719 64.9688 62.3906C63.9219 62.0938 63.2578 61.8984 62.9766 61.8047V52.5938H67.875L68.6016 56.625ZM101.344 63.4688C98.75 63.4688 96.9141 62.6641 95.8359 61.0547C94.7734 59.4453 94.2422 57.1328 94.2422 54.1172V43.0781H89.7891V38.4141L94.2422 37.8047V31.1719L101.438 29.8828V37.8047H108.164V43.0781H101.438V53.6484C101.438 55.2422 101.609 56.3594 101.953 57C102.312 57.6406 102.992 57.9609 103.992 57.9609C104.57 57.9609 105.242 57.8359 106.008 57.5859C106.773 57.3203 107.367 57.0781 107.789 56.8594L109.5 60.5156C106.812 62.5 104.094 63.4844 101.344 63.4688ZM127.148 59.8828C127.148 59.9453 126.734 60.2969 125.906 60.9375C125.078 61.5781 124.086 62.1641 122.93 62.6953C121.773 63.2109 120.586 63.4688 119.367 63.4688C117.023 63.4688 115.188 62.8203 113.859 61.5234C112.547 60.2109 111.891 58.3516 111.891 55.9453C111.891 53.1953 112.875 51.1875 114.844 49.9219C116.812 48.6562 119.68 48.0234 123.445 48.0234H126.82V45.375C126.82 43.0312 125.586 41.8672 123.117 41.8828C122.383 41.8828 121.703 41.9375 121.078 42.0469C120.453 42.1562 119.953 42.2734 119.578 42.3984C119.219 42.5078 118.992 42.5781 118.898 42.6094L118.172 45.6328H113.859L113.531 38.5312C113.812 38.4375 114.5 38.2344 115.594 37.9219C116.703 37.6094 118.023 37.3125 119.555 37.0312C121.102 36.75 122.562 36.6094 123.938 36.6094C126.406 36.6094 128.367 36.9219 129.82 37.5469C131.273 38.1562 132.336 39.1562 133.008 40.5469C133.68 41.9219 134.016 43.7734 134.016 46.1016V57.9609L137.625 58.8281V62.6719L128.016 63L127.148 59.8828ZM118.852 55.2188C118.852 56.1562 119.094 56.875 119.578 57.375C120.078 57.8594 120.781 58.1016 121.688 58.1016C122.453 58.1016 123.211 57.8984 123.961 57.4922C124.711 57.0703 125.344 56.6406 125.859 56.2031C126.375 55.75 126.695 55.4531 126.82 55.3125V52.1016H124.078C122.219 52.1016 120.883 52.3516 120.07 52.8516C119.258 53.3516 118.852 54.1406 118.852 55.2188ZM150.984 40.3828C150.984 40.3203 151.359 39.9531 152.109 39.2812C152.859 38.6094 153.727 38 154.711 37.4531C155.711 36.8906 156.695 36.6094 157.664 36.6094C158.43 36.6094 159.148 36.6719 159.82 36.7969C160.492 36.9219 161.016 37.0547 161.391 37.1953C161.781 37.3359 162.023 37.4219 162.117 37.4531L161.742 46.6875H157.43L156.703 42.6094C155.875 42.6094 155.07 42.8125 154.289 43.2188C153.523 43.6094 152.867 44.0469 152.32 44.5312C151.789 45 151.523 45.25 151.523 45.2812V57.9609L156.328 59.1562V63H140.484V59.1562L144.328 57.9609V42.3516L140.484 41.1562V37.3125L150.562 37.0781L150.984 40.3828ZM175.359 58.9219L178.945 57.4688V34.9219L175.359 33.4688V29.3906L186.398 29.1562H190.945C194.586 29.1562 197.438 30.0547 199.5 31.8516C201.578 33.6484 202.617 36.1094 202.617 39.2344C202.617 43.2031 201.438 46.1953 199.078 48.2109C196.734 50.2266 193.352 51.2344 188.93 51.2344H186.398V57.4688L189.984 58.9219V63H175.359V58.9219ZM188.93 45.6328C190.945 45.6328 192.492 45.1719 193.57 44.25C194.648 43.3125 195.188 41.9609 195.188 40.1953C195.188 38.6016 194.758 37.3281 193.898 36.375C193.055 35.4062 191.836 34.9219 190.242 34.9219H186.398V45.6328H188.93ZM208.242 29.1562C208.242 27.8438 208.648 26.7969 209.461 26.0156C210.273 25.2344 211.242 24.8438 212.367 24.8438C215.055 24.8438 216.398 26.2812 216.398 29.1562C216.398 30.5 215.984 31.5703 215.156 32.3672C214.344 33.1484 213.414 33.5391 212.367 33.5391C211.055 33.5391 210.039 33.1641 209.32 32.4141C208.602 31.6484 208.242 30.5625 208.242 29.1562ZM219.656 59.1562V63H205.266V59.1562L209.109 57.9609V42.3516L205.266 41.1562V37.3125L216.305 37.0781V57.9609L219.656 59.1562ZM231.773 57.7266H238.781L239.578 53.6484H243.914V63H223.031V58.5938L235.219 42.3516H228.656L227.93 45.8672H223.594V37.0781H243.773V41.5547L231.773 57.7266ZM256.008 57.7266H263.016L263.812 53.6484H268.148V63H247.266V58.5938L259.453 42.3516H252.891L252.164 45.8672H247.828V37.0781H268.008V41.5547L256.008 57.7266ZM286.758 59.8828C286.758 59.9453 286.344 60.2969 285.516 60.9375C284.688 61.5781 283.695 62.1641 282.539 62.6953C281.383 63.2109 280.195 63.4688 278.977 63.4688C276.633 63.4688 274.797 62.8203 273.469 61.5234C272.156 60.2109 271.5 58.3516 271.5 55.9453C271.5 53.1953 272.484 51.1875 274.453 49.9219C276.422 48.6562 279.289 48.0234 283.055 48.0234H286.43V45.375C286.43 43.0312 285.195 41.8672 282.727 41.8828C281.992 41.8828 281.312 41.9375 280.688 42.0469C280.062 42.1562 279.562 42.2734 279.188 42.3984C278.828 42.5078 278.602 42.5781 278.508 42.6094L277.781 45.6328H273.469L273.141 38.5312C273.422 38.4375 274.109 38.2344 275.203 37.9219C276.312 37.6094 277.633 37.3125 279.164 37.0312C280.711 36.75 282.172 36.6094 283.547 36.6094C286.016 36.6094 287.977 36.9219 289.43 37.5469C290.883 38.1562 291.945 39.1562 292.617 40.5469C293.289 41.9219 293.625 43.7734 293.625 46.1016V57.9609L297.234 58.8281V62.6719L287.625 63L286.758 59.8828ZM278.461 55.2188C278.461 56.1562 278.703 56.875 279.188 57.375C279.688 57.8594 280.391 58.1016 281.297 58.1016C282.062 58.1016 282.82 57.8984 283.57 57.4922C284.32 57.0703 284.953 56.6406 285.469 56.2031C285.984 55.75 286.305 55.4531 286.43 55.3125V52.1016H283.688C281.828 52.1016 280.492 52.3516 279.68 52.8516C278.867 53.3516 278.461 54.1406 278.461 55.2188Z" fill="#D53434"/>
<path d="M26.5 21L32.4496 39.3111H51.703L36.1267 50.6279L42.0763 68.9389L26.5 57.6221L10.9237 68.9389L16.8733 50.6279L1.297 39.3111H20.5504L26.5 21Z" fill="#D53434"/>
<path d="M327.5 21L333.45 39.3111H352.703L337.127 50.6279L343.076 68.9389L327.5 57.6221L311.924 68.9389L317.873 50.6279L302.297 39.3111H321.55L327.5 21Z" fill="#D53434"/>
</svg>
